<svg width="90" height="46" viewBox="0 0 90 46" fill="none" xmlns="http://www.w3.org/2000/svg">
<path d="M8.40517 37.3129L14.8452 22.1529H14.9852L21.4252 37.3129H18.7452L14.2052 25.8129L15.8852 24.6729L10.7052 37.3129H8.40517ZM12.4452 31.9129H17.4252L18.2252 33.8929H11.7452L12.4452 31.9129ZM25.4695 28.8529L25.6695 31.2529L25.5895 30.9129C25.8295 30.4063 26.1562 29.9729 26.5695 29.6129C26.9962 29.2396 27.4295 28.9596 27.8695 28.7729C28.3095 28.5729 28.6695 28.4729 28.9495 28.4729L28.8495 30.7129C28.2095 30.6596 27.6495 30.7796 27.1695 31.0729C26.7029 31.3529 26.3362 31.7263 26.0695 32.1929C25.8162 32.6596 25.6895 33.1529 25.6895 33.6729V37.3129H23.4495V28.8529H25.4695ZM32.0425 25.1329H34.3025V28.8529H36.5025V30.6129H34.3025V37.3129H32.0425V30.6129H30.6025V28.8529H32.0425V25.1329ZM42.7435 37.5329C41.7435 37.5329 40.8901 37.3396 40.1835 36.9529C39.4768 36.5663 38.9368 36.0329 38.5635 35.3529C38.1901 34.6596 38.0035 33.8796 38.0035 33.0129C38.0035 32.1596 38.2168 31.3929 38.6435 30.7129C39.0701 30.0329 39.6435 29.4929 40.3635 29.0929C41.0968 28.6796 41.9035 28.4729 42.7835 28.4729C43.9435 28.4729 44.8968 28.8129 45.6435 29.4929C46.4035 30.1596 46.9101 31.1063 47.1635 32.3329L40.3435 34.6329L39.8235 33.3729L45.1435 31.4729L44.6835 31.7329C44.5368 31.3329 44.2968 30.9863 43.9635 30.6929C43.6435 30.3996 43.1901 30.2529 42.6035 30.2529C42.1368 30.2529 41.7235 30.3663 41.3635 30.5929C41.0035 30.8063 40.7168 31.1129 40.5035 31.5129C40.3035 31.8996 40.2035 32.3596 40.2035 32.8929C40.2035 33.4396 40.3168 33.9196 40.5435 34.3329C40.7701 34.7463 41.0768 35.0663 41.4635 35.2929C41.8501 35.5063 42.2901 35.6129 42.7835 35.6129C43.1301 35.6129 43.4635 35.5529 43.7835 35.4329C44.1035 35.3129 44.4035 35.1529 44.6835 34.9529L45.7035 36.6129C45.2635 36.8929 44.7768 37.1196 44.2435 37.2929C43.7235 37.4529 43.2235 37.5329 42.7435 37.5329ZM51.3875 28.8529L51.5875 30.5729L51.5075 30.4329C51.8275 29.8196 52.2608 29.3396 52.8075 28.9929C53.3675 28.6463 54.0142 28.4729 54.7475 28.4729C55.2142 28.4729 55.6275 28.5463 55.9875 28.6929C56.3475 28.8396 56.6475 29.0463 56.8875 29.3129C57.1408 29.5796 57.3075 29.9129 57.3875 30.3129L57.2675 30.3529C57.6142 29.7796 58.0608 29.3263 58.6075 28.9929C59.1542 28.6463 59.7342 28.4729 60.3475 28.4729C61.1742 28.4729 61.8342 28.7129 62.3275 29.1929C62.8208 29.6596 63.0742 30.2663 63.0875 31.0129V37.3129H60.8675V31.8929C60.8542 31.4796 60.7675 31.1396 60.6075 30.8729C60.4475 30.5929 60.1475 30.4396 59.7075 30.4129C59.2275 30.4129 58.8142 30.5663 58.4675 30.8729C58.1208 31.1663 57.8475 31.5529 57.6475 32.0329C57.4608 32.4996 57.3675 32.9996 57.3675 33.5329V37.3129H55.1075V31.8929C55.0942 31.4796 55.0008 31.1396 54.8275 30.8729C54.6542 30.5929 54.3475 30.4396 53.9075 30.4129C53.4408 30.4129 53.0342 30.5663 52.6875 30.8729C52.3408 31.1663 52.0742 31.5529 51.8875 32.0329C51.7008 32.4996 51.6075 32.9929 51.6075 33.5129V37.3129H49.3675V28.8529H51.3875ZM66.1644 28.8529H68.4044V37.3129H66.1644V28.8529ZM66.0644 25.8329C66.0644 25.4863 66.1977 25.1996 66.4644 24.9729C66.7444 24.7463 67.0444 24.6329 67.3644 24.6329C67.6844 24.6329 67.9711 24.7463 68.2244 24.9729C68.4911 25.1996 68.6244 25.4863 68.6244 25.8329C68.6244 26.1796 68.4911 26.4663 68.2244 26.6929C67.9711 26.9063 67.6844 27.0129 67.3644 27.0129C67.0444 27.0129 66.7444 26.8996 66.4644 26.6729C66.1977 26.4463 66.0644 26.1663 66.0644 25.8329ZM74.0169 37.4929C73.3769 37.4929 72.7636 37.3796 72.1769 37.1529C71.6036 36.9263 71.1169 36.5929 70.7169 36.1529L71.6769 34.8929C72.0502 35.2529 72.4169 35.5196 72.7769 35.6929C73.1502 35.8529 73.5036 35.9329 73.8369 35.9329C74.0902 35.9329 74.3169 35.9063 74.5169 35.8529C74.7302 35.7863 74.8969 35.6863 75.0169 35.5529C75.1502 35.4196 75.2169 35.2396 75.2169 35.0129C75.2169 34.7463 75.1236 34.5396 74.9369 34.3929C74.7502 34.2329 74.5102 34.1063 74.2169 34.0129C73.9236 33.9063 73.6169 33.8063 73.2969 33.7129C72.5636 33.4863 72.0169 33.1529 71.6569 32.7129C71.2969 32.2729 71.1169 31.7663 71.1169 31.1929C71.1169 30.7529 71.2302 30.3329 71.4569 29.9329C71.6836 29.5196 72.0302 29.1796 72.4969 28.9129C72.9636 28.6463 73.5502 28.5129 74.2569 28.5129C74.8969 28.5129 75.4502 28.5863 75.9169 28.7329C76.3969 28.8663 76.8436 29.0996 77.2569 29.4329L76.3969 30.7729C76.1569 30.5463 75.8702 30.3729 75.5369 30.2529C75.2169 30.1196 74.9236 30.0463 74.6569 30.0329C74.4169 30.0196 74.2036 30.0529 74.0169 30.1329C73.8302 30.1996 73.6769 30.2996 73.5569 30.4329C73.4502 30.5663 73.3969 30.7196 73.3969 30.8929C73.3836 31.1596 73.4702 31.3729 73.6569 31.5329C73.8569 31.6929 74.1102 31.8196 74.4169 31.9129C74.7236 32.0063 75.0302 32.1063 75.3369 32.2129C75.7502 32.3329 76.1169 32.4996 76.4369 32.7129C76.7569 32.9263 77.0036 33.1863 77.1769 33.4929C77.3636 33.7863 77.4569 34.1529 77.4569 34.5929C77.4569 35.0996 77.3302 35.5796 77.0769 36.0329C76.8236 36.4729 76.4436 36.8263 75.9369 37.0929C75.4302 37.3596 74.7902 37.4929 74.0169 37.4929Z" fill="white"/>
<path d="M0.5 45.5L15 15.5L20.5 26.5L15 0L0.5 45.5Z" fill="white"/>
</svg>
