<svg width="1494" height="796" viewBox="0 0 1494 796" fill="none" xmlns="http://www.w3.org/2000/svg">
<g clip-path="url(#clip0_64_17)">
<rect width="1494" height="796" fill="white"/>
<rect x="-17" y="-1" width="1511" height="796" fill="#F3F3F3"/>
<g filter="url(#filter0_d_64_17)">
<path d="M724.391 0H0V796H942.007C891.539 723.011 882.652 662.698 942.007 479.985C978.062 378.434 955.19 333.668 852.576 271.296C764.239 202.678 732.123 149.256 724.391 0Z" fill="#000638"/>
</g>
<path d="M263.304 421L294.216 348.232H294.888L325.8 421H312.936L291.144 365.8L299.208 360.328L274.344 421H263.304ZM282.696 395.08H306.6L310.44 404.584H279.336L282.696 395.08ZM345.213 380.392L346.173 391.912L345.789 390.28C346.941 387.848 348.509 385.768 350.493 384.04C352.541 382.248 354.621 380.904 356.733 380.008C358.845 379.048 360.573 378.568 361.917 378.568L361.437 389.32C358.365 389.064 355.677 389.64 353.373 391.048C351.133 392.392 349.373 394.184 348.093 396.424C346.877 398.664 346.269 401.032 346.269 403.528V421H335.517V380.392H345.213ZM376.763 362.536H387.611V380.392H398.171V388.84H387.611V421H376.763V388.84H369.851V380.392H376.763V362.536ZM428.128 422.056C423.328 422.056 419.232 421.128 415.84 419.272C412.448 417.416 409.856 414.856 408.064 411.592C406.272 408.264 405.376 404.52 405.376 400.36C405.376 396.264 406.4 392.584 408.448 389.32C410.496 386.056 413.248 383.464 416.704 381.544C420.224 379.56 424.096 378.568 428.32 378.568C433.888 378.568 438.464 380.2 442.048 383.464C445.696 386.664 448.128 391.208 449.344 397.096L416.608 408.136L414.112 402.088L439.648 392.968L437.44 394.216C436.736 392.296 435.584 390.632 433.984 389.224C432.448 387.816 430.272 387.112 427.456 387.112C425.216 387.112 423.232 387.656 421.504 388.744C419.776 389.768 418.4 391.24 417.376 393.16C416.416 395.016 415.936 397.224 415.936 399.784C415.936 402.408 416.48 404.712 417.568 406.696C418.656 408.68 420.128 410.216 421.984 411.304C423.84 412.328 425.952 412.84 428.32 412.84C429.984 412.84 431.584 412.552 433.12 411.976C434.656 411.4 436.096 410.632 437.44 409.672L442.336 417.64C440.224 418.984 437.888 420.072 435.328 420.904C432.832 421.672 430.432 422.056 428.128 422.056ZM469.619 380.392L470.579 388.648L470.195 387.976C471.731 385.032 473.811 382.728 476.435 381.064C479.123 379.4 482.227 378.568 485.747 378.568C487.987 378.568 489.971 378.92 491.699 379.624C493.427 380.328 494.867 381.32 496.019 382.6C497.235 383.88 498.035 385.48 498.419 387.4L497.843 387.592C499.507 384.84 501.651 382.664 504.275 381.064C506.899 379.4 509.683 378.568 512.627 378.568C516.595 378.568 519.763 379.72 522.131 382.024C524.499 384.264 525.715 387.176 525.779 390.76V421H515.123V394.984C515.059 393 514.643 391.368 513.875 390.088C513.107 388.744 511.667 388.008 509.555 387.88C507.251 387.88 505.267 388.616 503.603 390.088C501.939 391.496 500.627 393.352 499.667 395.656C498.771 397.896 498.323 400.296 498.323 402.856V421H487.475V394.984C487.411 393 486.963 391.368 486.131 390.088C485.299 388.744 483.827 388.008 481.715 387.88C479.475 387.88 477.523 388.616 475.859 390.088C474.195 391.496 472.915 393.352 472.019 395.656C471.123 397.896 470.675 400.264 470.675 402.76V421H459.923V380.392H469.619ZM540.548 380.392H551.3V421H540.548V380.392ZM540.068 365.896C540.068 364.232 540.708 362.856 541.988 361.768C543.332 360.68 544.772 360.136 546.308 360.136C547.844 360.136 549.22 360.68 550.436 361.768C551.716 362.856 552.356 364.232 552.356 365.896C552.356 367.56 551.716 368.936 550.436 370.024C549.22 371.048 547.844 371.56 546.308 371.56C544.772 371.56 543.332 371.016 541.988 369.928C540.708 368.84 540.068 367.496 540.068 365.896ZM578.24 421.864C575.168 421.864 572.224 421.32 569.408 420.232C566.656 419.144 564.32 417.544 562.4 415.432L567.008 409.384C568.8 411.112 570.56 412.392 572.288 413.224C574.08 413.992 575.776 414.376 577.376 414.376C578.592 414.376 579.68 414.248 580.64 413.992C581.664 413.672 582.464 413.192 583.04 412.552C583.68 411.912 584 411.048 584 409.96C584 408.68 583.552 407.688 582.656 406.984C581.76 406.216 580.608 405.608 579.2 405.16C577.792 404.648 576.32 404.168 574.784 403.72C571.264 402.632 568.64 401.032 566.912 398.92C565.184 396.808 564.32 394.376 564.32 391.624C564.32 389.512 564.864 387.496 565.952 385.576C567.04 383.592 568.704 381.96 570.944 380.68C573.184 379.4 576 378.76 579.392 378.76C582.464 378.76 585.12 379.112 587.36 379.816C589.664 380.456 591.808 381.576 593.792 383.176L589.664 389.608C588.512 388.52 587.136 387.688 585.536 387.112C584 386.472 582.592 386.12 581.312 386.056C580.16 385.992 579.136 386.152 578.24 386.536C577.344 386.856 576.608 387.336 576.032 387.976C575.52 388.616 575.264 389.352 575.264 390.184C575.2 391.464 575.616 392.488 576.512 393.256C577.472 394.024 578.688 394.632 580.16 395.08C581.632 395.528 583.104 396.008 584.576 396.52C586.56 397.096 588.32 397.896 589.856 398.92C591.392 399.944 592.576 401.192 593.408 402.664C594.304 404.072 594.752 405.832 594.752 407.944C594.752 410.376 594.144 412.68 592.928 414.856C591.712 416.968 589.888 418.664 587.456 419.944C585.024 421.224 581.952 421.864 578.24 421.864Z" fill="white"/>
<path d="M231 450L295.525 316.154L320 365.231L295.525 247L231 450Z" fill="white"/>
</g>
<defs>
<filter id="filter0_d_64_17" x="0" y="-5" width="968" height="806" filterUnits="userSpaceOnUse" color-interpolation-filters="sRGB">
<feFlood flood-opacity="0" result="BackgroundImageFix"/>
<feColorMatrix in="SourceAlpha" type="matrix" values="0 0 0 0 0 0 0 0 0 0 0 0 0 0 0 0 0 0 127 0" result="hardAlpha"/>
<feOffset dx="5"/>
<feGaussianBlur stdDeviation="2.5"/>
<feComposite in2="hardAlpha" operator="out"/>
<feColorMatrix type="matrix" values="0 0 0 0 0 0 0 0 0 0 0 0 0 0 0 0 0 0 0.25 0"/>
<feBlend mode="normal" in2="BackgroundImageFix" result="effect1_dropShadow_64_17"/>
<feBlend mode="normal" in="SourceGraphic" in2="effect1_dropShadow_64_17" result="shape"/>
</filter>
<clipPath id="clip0_64_17">
<rect width="1494" height="796" fill="white"/>
</clipPath>
</defs>
</svg>
